<?xml version="1.0" standalone="no"?>
<!DOCTYPE svg PUBLIC "-//W3C//DTD SVG 20010904//EN"
 "http://www.w3.org/TR/2001/REC-SVG-20010904/DTD/svg10.dtd">
<svg version="1.0" xmlns="http://www.w3.org/2000/svg"
 width="337.000000pt" height="337.000000pt" viewBox="0 0 337.000000 337.000000"
 preserveAspectRatio="xMidYMid meet">
<metadata>
Created by potrace 1.15, written by Peter Selinger 2001-2017
</metadata>
<g transform="translate(0.000000,337.000000) scale(0.100000,-0.100000)"
fill="#000000" stroke="none">
<path d="M122 2494 c-37 -19 -62 -59 -62 -101 0 -16 31 -120 70 -231 102 -295
141 -433 216 -752 36 -157 73 -298 81 -313 28 -55 136 -83 206 -53 59 25 81
59 83 129 1 71 28 147 126 367 36 80 81 187 99 238 18 50 36 92 39 92 3 0 14
-46 24 -102 85 -476 137 -687 183 -732 50 -50 147 -59 202 -18 31 23 69 89
112 197 18 44 99 235 181 424 82 189 171 407 197 485 27 77 59 169 71 203 21
57 22 66 9 99 -28 73 -119 104 -189 66 -52 -29 -85 -91 -130 -250 -31 -108
-288 -782 -305 -800 -11 -12 -101 436 -130 648 -30 222 -54 307 -95 349 -58
57 -125 53 -187 -12 -66 -67 -106 -155 -202 -437 -49 -146 -99 -290 -111 -320
-12 -30 -26 -66 -32 -80 -8 -21 -21 19 -78 246 -92 366 -160 571 -209 625 -32
36 -43 42 -86 46 -34 2 -61 -2 -83 -13z"/>
<path d="M2635 2491 c-281 -7 -293 -10 -322 -79 -30 -71 10 -151 86 -172 20
-5 91 -10 159 -10 l122 0 0 -217 c0 -205 -21 -619 -36 -701 -3 -20 -13 -48
-21 -61 -13 -20 -21 -23 -53 -18 -54 7 -139 48 -184 88 -42 36 -66 82 -66 124
0 39 -27 83 -62 101 -44 23 -121 14 -153 -16 -55 -51 -56 -165 -4 -269 89
-178 393 -329 567 -282 57 16 121 76 154 143 66 136 118 500 118 827 0 70 3
164 7 210 l6 84 103 -7 c119 -8 151 2 184 57 42 68 18 142 -56 178 -56 27
-146 30 -549 20z"/>
</g>
</svg>
